<svg width="20" height="15" viewBox="0 0 20 15" fill="none" xmlns="http://www.w3.org/2000/svg">
<path d="M18.9838 8.14897L12.8238 14.309C12.2738 14.859 11.3205 14.474 11.3205 13.6856V10.1656H6.33382C5.84616 10.1656 5.45382 9.7733 5.45382 9.28563V5.76564C5.45382 5.27797 5.84616 4.88564 6.33382 4.88564H11.3205V1.36564C11.3205 0.580976 12.2701 0.19231 12.8238 0.742309L18.9838 6.9023C19.3248 7.24697 19.3248 7.8043 18.9838 8.14897ZM7.80049 14.1256V12.659C7.80049 12.417 7.60249 12.219 7.36049 12.219H4.28049C3.63149 12.219 3.10716 11.6946 3.10716 11.0456V4.00564C3.10716 3.35664 3.63149 2.83231 4.28049 2.83231H7.36049C7.60249 2.83231 7.80049 2.63431 7.80049 2.39231V0.925643C7.80049 0.683643 7.60249 0.485643 7.36049 0.485643H4.28049C2.33716 0.485643 0.760498 2.06231 0.760498 4.00564V11.0456C0.760498 12.989 2.33716 14.5656 4.28049 14.5656H7.36049C7.60249 14.5656 7.80049 14.3676 7.80049 14.1256Z" fill="#FC887B"/>
</svg>
