<svg width="13" height="9" viewBox="0 0 13 9" fill="none" xmlns="http://www.w3.org/2000/svg">
<path d="M12.0523 4.415C10.973 2.29649 8.83644 0.863129 6.38998 0.863129C3.94353 0.863129 1.80634 2.29749 0.727693 4.4152C0.682167 4.5058 0.658447 4.6059 0.658447 4.70742C0.658447 4.80894 0.682167 4.90903 0.727693 4.99963C1.80694 7.11814 3.94353 8.5515 6.38998 8.5515C8.83644 8.5515 10.9736 7.11714 12.0523 4.99943C12.0978 4.90883 12.1215 4.80874 12.1215 4.70722C12.1215 4.6057 12.0978 4.5056 12.0523 4.415V4.415ZM6.38998 7.59046C5.82319 7.59046 5.26912 7.42136 4.79785 7.10456C4.32657 6.78776 3.95926 6.33747 3.74235 5.81065C3.52545 5.28382 3.4687 4.70412 3.57928 4.14484C3.68985 3.58557 3.96279 3.07184 4.36358 2.66863C4.76436 2.26541 5.27499 1.99082 5.8309 1.87957C6.3868 1.76833 6.96302 1.82542 7.48667 2.04364C8.01032 2.26186 8.45789 2.6314 8.77279 3.10553C9.08768 3.57966 9.25576 4.13708 9.25576 4.70732C9.25594 5.08599 9.18194 5.46098 9.03799 5.81086C8.89403 6.16075 8.68295 6.47865 8.4168 6.74642C8.15065 7.01418 7.83466 7.22654 7.48688 7.37137C7.13911 7.51619 6.76637 7.59064 6.38998 7.59046V7.59046ZM6.38998 2.78522C6.21946 2.78762 6.05003 2.81314 5.88628 2.8611C6.02126 3.04564 6.08603 3.27273 6.06885 3.50119C6.05167 3.72965 5.95368 3.94435 5.79265 4.10636C5.63162 4.26837 5.41821 4.36695 5.19112 4.38424C4.96404 4.40152 4.73832 4.33636 4.55489 4.20056C4.45045 4.5877 4.4693 4.99805 4.6088 5.37384C4.74831 5.74964 5.00143 6.07196 5.33256 6.29544C5.66368 6.51892 6.05612 6.6323 6.45466 6.61964C6.85319 6.60697 7.23774 6.46889 7.55418 6.22483C7.87062 5.98077 8.10302 5.64302 8.21867 5.25911C8.33432 4.87521 8.32739 4.46449 8.19886 4.08475C8.07034 3.70502 7.82668 3.37539 7.50219 3.14227C7.1777 2.90915 6.78871 2.78428 6.38998 2.78522V2.78522Z" fill="white"/>
</svg>
