<svg width="17" height="16" viewBox="0 0 17 16" fill="none" xmlns="http://www.w3.org/2000/svg">
<path d="M15.6892 13.8731L12.1692 10.3531C12.9696 9.16476 13.3646 7.68001 13.1531 6.09793C12.7926 3.40692 10.5871 1.217 7.89344 0.875975C3.88854 0.369209 0.520888 3.73687 1.02768 7.74177C1.3688 10.4366 3.55901 12.6439 6.25031 13.0026C7.83239 13.214 9.31743 12.8192 10.5055 12.0187L14.0254 15.5387C14.4848 15.998 15.2297 15.998 15.689 15.5387C16.1479 15.0787 16.1479 14.3318 15.6892 13.8731ZM3.30306 6.9419C3.30306 4.86638 4.99159 3.17784 7.06711 3.17784C9.14264 3.17784 10.8312 4.86638 10.8312 6.9419C10.8312 9.01743 9.14264 10.706 7.06711 10.706C4.99159 10.706 3.30306 9.01802 3.30306 6.9419Z" fill="#757575"/>
</svg>
