<svg width="100" height="100" viewBox="0 0 100 100" fill="none" xmlns="http://www.w3.org/2000/svg">
<path d="M57.1396 6.25V10C73.4334 12.8965 85.7095 25.5078 85.7095 40.625V44.2969C85.7095 53.4961 89.5709 62.3437 96.5348 69.2187L98.1865 70.8398C100.061 72.6953 100.53 75.3125 99.3695 77.5586C98.2088 79.8047 95.6643 81.25 92.852 81.25H7.14241C4.33006 81.25 1.77909 79.8047 0.626921 77.5586C-0.525248 75.3125 -0.0644027 72.6953 1.80431 70.8398L3.45958 69.2187C10.4324 62.3437 14.2849 53.4961 14.2849 44.2969V40.625C14.2849 25.5078 26.3601 12.8965 42.8547 10V6.25C42.8547 2.79883 46.0465 0 49.9972 0C53.9479 0 57.1396 2.79883 57.1396 6.25ZM49.9972 100C46.2027 100 42.5646 98.6914 39.8861 96.3477C37.2077 94.0039 35.7123 90.6445 35.7123 87.5H64.2821C64.2821 90.6445 62.7867 94.0039 60.1082 96.3477C57.4298 98.6914 53.5907 100 49.9972 100Z" fill="#D0E6A5"/>
</svg>
