<svg width="9" height="9" viewBox="0 0 9 9" fill="none" xmlns="http://www.w3.org/2000/svg">
<path d="M8.36342 2.92653L7.64307 3.64688C7.56963 3.72032 7.45088 3.72032 7.37743 3.64688L5.64298 1.91243C5.56954 1.83899 5.56954 1.72024 5.64298 1.6468L6.36333 0.926455C6.65553 0.634256 7.13055 0.634256 7.42431 0.926455L8.36342 1.86556C8.65718 2.15775 8.65718 2.63277 8.36342 2.92653ZM5.0242 2.26557L0.920886 6.36886L0.58962 8.26737C0.544306 8.52363 0.767754 8.74552 1.02402 8.70176L2.92254 8.36894L7.02586 4.26565C7.0993 4.19221 7.0993 4.07346 7.02586 4.00002L5.2914 2.26557C5.2164 2.19213 5.09764 2.19213 5.0242 2.26557V2.26557ZM2.52252 6.01728C2.43658 5.93134 2.43658 5.79384 2.52252 5.7079L4.92888 3.30155C5.01483 3.21561 5.15233 3.21561 5.23827 3.30155C5.32421 3.38749 5.32421 3.525 5.23827 3.61094L2.83191 6.01728C2.74597 6.10322 2.60846 6.10322 2.52252 6.01728V6.01728ZM1.95843 7.3314H2.70847V7.89861L1.70061 8.07518L1.21465 7.58922L1.39122 6.58137H1.95843V7.3314Z" fill="white"/>
</svg>
