<svg width="14" height="14" viewBox="0 0 14 14" fill="none" xmlns="http://www.w3.org/2000/svg">
<path d="M12.9593 5.49793H8.77568V1.31431C8.77568 0.800941 8.35936 0.384613 7.84599 0.384613H6.9163C6.40293 0.384613 5.9866 0.800941 5.9866 1.31431V5.49793H1.80298C1.28962 5.49793 0.873291 5.91425 0.873291 6.42762V7.35731C0.873291 7.87068 1.28962 8.28701 1.80298 8.28701H5.9866V12.4706C5.9866 12.984 6.40293 13.4003 6.9163 13.4003H7.84599C8.35936 13.4003 8.77568 12.984 8.77568 12.4706V8.28701H12.9593C13.4727 8.28701 13.889 7.87068 13.889 7.35731V6.42762C13.889 5.91425 13.4727 5.49793 12.9593 5.49793Z" fill="#FEFEFE"/>
</svg>
