<svg width="100" height="101" viewBox="0 0 100 101" fill="none" xmlns="http://www.w3.org/2000/svg">
<path d="M50 0.5C22.3828 0.5 0 22.8828 0 50.5C0 78.1172 22.3828 100.5 50 100.5C77.6172 100.5 100 78.1172 100 50.5C100 22.8828 77.6172 0.5 50 0.5ZM50 25.5C57.7676 25.5 64.0625 31.7969 64.0625 39.5625C64.0625 47.3281 57.7734 53.625 50 53.625C42.2344 53.625 35.9375 47.3281 35.9375 39.5625C35.9375 31.7969 42.2266 25.5 50 25.5ZM50 88C39.6621 88 30.293 83.7949 23.4961 77.0059C26.6602 68.8398 34.4727 63 43.75 63H56.25C65.5352 63 73.3477 68.8359 76.5039 77.0059C69.707 83.8008 60.332 88 50 88Z" fill="#CCABDA"/>
</svg>
