<svg width="9" height="9" viewBox="0 0 9 9" fill="none" xmlns="http://www.w3.org/2000/svg">
<path d="M5.44459 7.20724H5.87316C5.92999 7.20724 5.9845 7.18749 6.02468 7.15233C6.06487 7.11716 6.08745 7.06947 6.08745 7.01974V3.64474C6.08745 3.59502 6.06487 3.54733 6.02468 3.51216C5.9845 3.477 5.92999 3.45724 5.87316 3.45724H5.44459C5.38776 3.45724 5.33325 3.477 5.29307 3.51216C5.25288 3.54733 5.2303 3.59502 5.2303 3.64474V7.01974C5.2303 7.06947 5.25288 7.11716 5.29307 7.15233C5.33325 7.18749 5.38776 7.20724 5.44459 7.20724ZM8.37316 1.95724H6.90155L6.29441 1.07131C6.21822 0.960216 6.11043 0.86829 5.98156 0.804488C5.85269 0.740686 5.70712 0.707183 5.55905 0.707245H3.7587C3.61069 0.707237 3.4652 0.740765 3.33639 0.804565C3.20759 0.868365 3.09986 0.960262 3.0237 1.07131L2.4162 1.95724H0.944589C0.868813 1.95724 0.79614 1.98358 0.742558 2.03047C0.688976 2.07735 0.658875 2.14094 0.658875 2.20724L0.658875 2.45724C0.658875 2.52355 0.688976 2.58714 0.742558 2.63402C0.79614 2.68091 0.868813 2.70724 0.944589 2.70724H1.2303V7.95724C1.2303 8.15616 1.32061 8.34692 1.48135 8.48758C1.6421 8.62823 1.86012 8.70724 2.08745 8.70724H7.2303C7.45763 8.70724 7.67565 8.62823 7.8364 8.48758C7.99714 8.34692 8.08745 8.15616 8.08745 7.95724V2.70724H8.37316C8.44894 2.70724 8.52161 2.68091 8.57519 2.63402C8.62877 2.58714 8.65887 2.52355 8.65887 2.45724V2.20724C8.65887 2.14094 8.62877 2.07735 8.57519 2.03047C8.52161 1.98358 8.44894 1.95724 8.37316 1.95724ZM3.72745 1.50271C3.737 1.48881 3.75051 1.47731 3.76666 1.46934C3.78281 1.46137 3.80105 1.4572 3.81959 1.45724H5.49816C5.51667 1.45723 5.53487 1.46141 5.55099 1.46937C5.56711 1.47734 5.58059 1.48883 5.59012 1.50271L5.90191 1.95724H3.41584L3.72745 1.50271ZM7.2303 7.95724H2.08745V2.70724H7.2303V7.95724ZM3.44459 7.20724H3.87316C3.92999 7.20724 3.9845 7.18749 4.02468 7.15233C4.06487 7.11716 4.08745 7.06947 4.08745 7.01974V3.64474C4.08745 3.59502 4.06487 3.54733 4.02468 3.51216C3.9845 3.477 3.92999 3.45724 3.87316 3.45724H3.44459C3.38776 3.45724 3.33325 3.477 3.29307 3.51216C3.25288 3.54733 3.2303 3.59502 3.2303 3.64474V7.01974C3.2303 7.06947 3.25288 7.11716 3.29307 7.15233C3.33325 7.18749 3.38776 7.20724 3.44459 7.20724Z" fill="white"/>
</svg>
