<svg width="27" height="29" viewBox="0 0 27 29" fill="none" xmlns="http://www.w3.org/2000/svg">
<path d="M25.7009 23.4003C26.7274 24.4634 26.7274 26.1857 25.7009 27.2489C25.1918 27.7805 24.5184 28.0441 23.845 28.0441C23.1716 28.0441 22.4999 27.7783 21.9874 27.2468L13.3337 18.2886L4.68072 27.2446C4.16747 27.7805 3.49491 28.0441 2.82235 28.0441C2.14979 28.0441 1.47805 27.7805 0.964391 27.2446C-0.0621051 26.1815 -0.0621051 24.4592 0.964391 23.396L9.61981 14.4315L0.964391 5.47119C-0.0621051 4.40803 -0.0621051 2.68572 0.964391 1.62256C1.99089 0.559406 3.65381 0.559406 4.68031 1.62256L13.3337 10.5914L21.9891 1.62682C23.0156 0.563659 24.6785 0.563659 25.705 1.62682C26.7315 2.68997 26.7315 4.41229 25.705 5.47544L17.0496 14.44L25.7009 23.4003Z" fill="white"/>
</svg>
